<?xml version="1.0" encoding="UTF-8"?>
<!DOCTYPE svg PUBLIC "-//W3C//DTD SVG 1.1//EN" "http://www.w3.org/Graphics/SVG/1.1/DTD/svg11.dtd">
<!-- Creator: CorelDRAW 2018 (64-Bit) -->
<svg xmlns="http://www.w3.org/2000/svg" xml:space="preserve" width="45mm" height="40mm" version="1.1" style="shape-rendering:geometricPrecision; text-rendering:geometricPrecision; image-rendering:optimizeQuality; fill-rule:evenodd; clip-rule:evenodd"
viewBox="0 0 4500 4000"
 xmlns:xlink="http://www.w3.org/1999/xlink">
 <defs>
  <style type="text/css">
   <![CDATA[
    .fil0 {fill:#2E2B5F}
    .fil3 {fill:#FFED00;fill-rule:nonzero}
    .fil2 {fill:#9D3A8C;fill-rule:nonzero}
    .fil1 {fill:#59AEE1;fill-rule:nonzero}
   ]]>
  </style>
 </defs>
 <g id="Слой_x0020_1">
  <metadata id="CorelCorpID_0Corel-Layer"/>
  <g id="_1909898498144">
   <path class="fil0" d="M1615.52 393.23l1253.08 0c588.02,0 1069.11,481.09 1069.11,1069.11l0 1075.32c0,588.02 -481.09,1069.11 -1069.11,1069.11l-1253.08 0c-588.02,0 -1069.11,-481.09 -1069.11,-1069.11l0 -1075.32c0,-588.02 481.09,-1069.11 1069.11,-1069.11z"/>
   <path class="fil1" d="M1496.44 2214.11c0,3.52 -1.23,6.27 -3.52,8.11 -2.46,1.83 -5.68,3.06 -9.96,3.98 -4.14,0.92 -10.26,1.38 -18.37,1.38 -7.65,0 -13.93,-0.46 -18.52,-1.38 -4.59,-0.92 -7.97,-2.15 -10.11,-3.98 -2.14,-1.84 -3.22,-4.44 -3.22,-8.11l0 -40.41c-17.6,18.83 -37.19,33.52 -58.93,43.93 -21.74,10.25 -44.7,15.46 -68.89,15.46 -21.28,0 -40.57,-2.76 -57.71,-8.27 -17.15,-5.51 -31.85,-13.62 -43.94,-24.03 -12.09,-10.41 -21.59,-23.42 -28.32,-38.57 -6.74,-15.31 -10.1,-32.6 -10.1,-52.04 0,-22.8 4.59,-42.55 13.92,-59.23 9.2,-16.84 22.51,-30.77 39.96,-41.79 17.31,-11.02 38.58,-19.44 63.68,-24.95 25.11,-5.51 53.43,-8.26 84.82,-8.26l55.72 0 0 -31.53c0,-15.46 -1.68,-29.23 -4.9,-41.33 -3.37,-11.93 -8.57,-21.88 -15.92,-29.84 -7.34,-7.96 -16.84,-13.93 -28.48,-17.91 -11.63,-4.13 -26.02,-6.12 -43.01,-6.12 -18.22,0 -34.6,2.14 -48.99,6.58 -14.54,4.44 -27.25,9.18 -38.11,14.54 -10.88,5.36 -20.06,10.1 -27.41,14.54 -7.19,4.44 -12.7,6.58 -16.22,6.58 -2.45,0 -4.6,-0.61 -6.28,-1.83 -1.84,-1.08 -3.37,-2.91 -4.74,-5.36 -1.38,-2.3 -2.3,-5.36 -2.91,-9.03 -0.62,-3.83 -0.92,-7.81 -0.92,-12.4 0,-7.35 0.46,-13.31 1.53,-17.6 1.07,-4.29 3.67,-8.42 7.65,-12.25 3.98,-3.82 11.02,-8.41 20.82,-13.77 9.79,-5.2 21.28,-10.1 34.14,-14.54 12.7,-4.29 26.78,-7.96 42.1,-10.87 15.15,-2.91 30.61,-4.28 46.08,-4.28 28.93,0 53.58,3.21 73.94,9.79 20.35,6.58 36.74,16.38 49.29,29.08 12.55,12.71 21.58,28.47 27.24,47.3 5.68,18.82 8.59,40.86 8.59,65.97l0 272.44zm-73.49 -184.9l-63.22 0c-20.21,0 -37.82,1.69 -52.82,5.21 -14.84,3.36 -27.25,8.57 -37.2,15.3 -9.8,6.74 -16.99,14.7 -21.73,24.19 -4.6,9.49 -6.89,20.35 -6.89,32.6 0,20.97 6.58,37.65 19.89,50.05 13.32,12.39 31.85,18.67 55.88,18.67 19.29,0 37.36,-4.9 53.89,-14.85 16.53,-9.79 33.99,-24.95 52.2,-45.3l0 -85.87z"/>
   <path class="fil2" d="M2186.23 1878.76c0,12.09 -1.68,20.36 -5.2,24.95 -3.37,4.74 -7.35,7.04 -11.79,7.04l-339.39 0c-4.44,0 -8.27,-2.3 -11.64,-7.04 -3.21,-4.59 -4.9,-12.86 -4.9,-24.95 0,-10.72 1.53,-18.67 4.44,-23.72 3.06,-5.06 7.04,-7.66 12.1,-7.66l339.39 0c5.36,0 9.49,2.6 12.55,7.66 2.91,5.05 4.44,13 4.44,23.72zm0 174.94c0,12.09 -1.68,20.36 -5.2,24.8 -3.37,4.44 -7.35,6.73 -11.79,6.73l-339.39 0c-4.44,0 -8.27,-2.29 -11.64,-6.73 -3.21,-4.44 -4.9,-12.71 -4.9,-24.8 0,-11.02 1.53,-19.13 4.44,-24.18 3.06,-5.05 7.04,-7.65 12.1,-7.65l339.39 0c5.36,0 9.49,2.6 12.55,7.65 2.91,5.05 4.44,13.16 4.44,24.18z"/>
   <path class="fil1" d="M2852.15 2194.51c0,5.67 -0.46,10.41 -1.38,14.24 -0.92,3.83 -1.99,7.04 -3.52,9.34 -1.53,2.44 -3.21,4.13 -5.2,5.2 -1.99,1.07 -3.98,1.53 -5.97,1.53l-303.12 0c-1.98,0 -3.97,-0.46 -5.81,-1.53 -1.68,-1.07 -3.52,-2.76 -5.05,-5.2 -1.69,-2.3 -2.91,-5.51 -3.83,-9.34 -0.92,-3.83 -1.38,-8.57 -1.38,-14.24 0,-5.35 0.46,-9.94 1.38,-13.77 0.92,-3.98 1.99,-7.19 3.37,-9.64 1.22,-2.6 2.91,-4.44 4.9,-5.82 1.99,-1.38 4.13,-1.99 6.42,-1.99l120.8 0 0 -441.72 -112.22 67.04c-5.67,2.91 -10.26,4.74 -13.78,5.36 -3.37,0.61 -6.12,0 -8.26,-1.99 -2.15,-1.99 -3.52,-5.21 -4.29,-9.65 -0.76,-4.44 -1.07,-10.1 -1.07,-16.99 0,-5.05 0.15,-9.49 0.61,-13.01 0.46,-3.67 1.23,-6.58 2.14,-9.03 0.92,-2.29 2.15,-4.43 3.83,-6.27 1.53,-1.69 3.67,-3.52 6.43,-5.36l133.8 -85.56c1.22,-0.92 2.6,-1.68 4.44,-2.29 1.84,-0.46 4.13,-1.07 6.73,-1.69 2.76,-0.61 5.82,-1.07 9.49,-1.22 3.52,-0.15 7.96,-0.15 13.47,-0.15 7.05,0 13.17,0.3 17.92,0.91 4.74,0.62 8.42,1.38 11.17,2.45 2.76,1.07 4.44,2.45 5.36,3.98 0.92,1.69 1.38,3.37 1.38,5.21l0 509.98 105.01 0c2.45,0 4.75,0.61 6.74,1.99 2.14,1.38 3.82,3.22 5.2,5.82 1.38,2.45 2.45,5.66 3.22,9.64 0.76,3.83 1.07,8.42 1.07,13.77z"/>
   <path id="1" class="fil1" d="M3335.15 1933.25c0,44.54 -3.52,85.25 -10.56,121.98 -7.06,36.74 -18.69,68.27 -34.91,94.75 -16.38,26.47 -37.66,46.83 -63.99,61.37 -26.33,14.54 -58.78,21.74 -97.36,21.74 -36.44,0 -67.06,-6.43 -92.16,-19.44 -24.96,-13.01 -45.01,-32.15 -60.32,-57.4 -15.15,-25.25 -26.03,-56.32 -32.46,-93.21 -6.42,-36.89 -9.64,-79.28 -9.64,-127.04 0,-44.23 3.52,-84.79 10.72,-121.68 7.19,-36.88 18.83,-68.57 35.06,-95.05 16.07,-26.48 37.35,-46.83 63.68,-61.37 26.33,-14.54 58.63,-21.74 96.9,-21.74 36.75,0 67.51,6.43 92.62,19.44 24.95,13.01 45.01,32.14 60.32,57.4 15.15,25.25 26.02,56.32 32.45,93.21 6.43,36.89 9.65,79.28 9.65,127.04zm-79 5.35c0,-28.92 -1.07,-54.94 -3.06,-77.9 -2.14,-22.96 -5.21,-43.32 -9.34,-60.92 -3.98,-17.6 -9.18,-32.75 -15.61,-45.46 -6.43,-12.55 -14.09,-23.11 -23.12,-31.22 -8.88,-8.26 -19.13,-14.23 -30.61,-17.91 -11.65,-3.82 -24.5,-5.66 -38.89,-5.66 -25.42,0 -45.93,5.97 -61.84,17.91 -15.78,11.94 -28.33,28.31 -37.36,49.28 -9.18,20.82 -15.31,45.31 -18.67,73.47 -3.22,28.01 -4.9,58.16 -4.9,90.46 0,43.16 2.29,80.04 6.73,110.35 4.44,30.3 11.64,54.95 21.28,74.08 9.64,19.13 22.04,33.06 37.2,41.63 15.15,8.72 33.37,13.01 54.96,13.01 16.68,0 31.38,-2.76 44.09,-8.11 12.7,-5.36 23.57,-13.01 32.75,-22.96 9.04,-10.1 16.7,-22.04 22.67,-36.12 5.96,-14.08 10.71,-29.54 14.38,-46.53 3.52,-16.99 5.97,-35.51 7.35,-55.25 1.38,-19.9 1.99,-40.56 1.99,-62.15z"/>
   <path class="fil3" d="M1740.97 891.11c0,18.06 -2.11,34.28 -6.35,48.75 -4.29,14.46 -10.64,26.75 -19.05,36.92 -8.46,10.11 -19.05,17.93 -31.81,23.4 -12.75,5.47 -27.63,8.18 -44.62,8.18 -16.76,0 -31.22,-2.47 -43.45,-7.47 -12.29,-5 -22.35,-12.29 -30.34,-21.82 -8,-9.52 -13.94,-21.34 -17.82,-35.45 -3.94,-14.11 -5.88,-30.34 -5.88,-48.68 0,-17.58 2.12,-33.58 6.35,-47.92 4.3,-14.35 10.65,-26.52 19.17,-36.57 8.47,-10 19.11,-17.76 31.87,-23.23 12.7,-5.47 27.57,-8.17 44.63,-8.17 16.4,0 30.69,2.47 42.86,7.41 12.17,4.94 22.34,12.11 30.4,21.57 8.11,9.47 14.17,21.17 18.11,35.17 3.94,13.93 5.93,29.92 5.93,47.91zm-31.39 2.06c0,-12.58 -1.12,-24.34 -3.35,-35.16 -2.24,-10.82 -5.94,-20.22 -11.18,-28.22 -5.23,-7.94 -12.17,-14.17 -20.87,-18.64 -8.76,-4.47 -19.52,-6.7 -32.34,-6.7 -12.87,0 -23.63,2.41 -32.34,7.23 -8.7,4.82 -15.81,11.23 -21.22,19.23 -5.47,8.05 -9.35,17.4 -11.7,28.16 -2.35,10.7 -3.53,21.93 -3.53,33.75 0,13.11 1.12,25.11 3.29,36.1 2.18,11.05 5.82,20.52 11,28.52 5.11,7.93 12.05,14.11 20.69,18.52 8.65,4.41 19.53,6.64 32.58,6.64 12.99,0 23.87,-2.41 32.69,-7.23 8.82,-4.82 15.93,-11.29 21.34,-19.52 5.35,-8.17 9.23,-17.7 11.53,-28.46 2.29,-10.76 3.41,-22.16 3.41,-34.22z"/>
   <path id="1" class="fil3" d="M1915.66 1000.89c0,0.94 -0.24,1.7 -0.71,2.35 -0.47,0.59 -1.17,1.18 -2.23,1.65 -1,0.41 -2.47,0.76 -4.29,1 -1.82,0.23 -4.12,0.35 -6.88,0.35 -2.88,0 -5.23,-0.12 -7.06,-0.35 -1.82,-0.24 -3.29,-0.59 -4.41,-1 -1.06,-0.47 -1.82,-1.06 -2.29,-1.65 -0.47,-0.65 -0.71,-1.41 -0.71,-2.35l0 -135.41 -73.73 0 0 135.41c0,0.94 -0.23,1.7 -0.7,2.35 -0.47,0.59 -1.24,1.18 -2.35,1.65 -1.06,0.41 -2.53,0.76 -4.41,1 -1.83,0.23 -4.12,0.35 -6.88,0.35 -2.82,0 -5.12,-0.12 -6.94,-0.35 -1.88,-0.24 -3.35,-0.59 -4.41,-1 -1.12,-0.47 -1.88,-1.06 -2.29,-1.65 -0.42,-0.65 -0.59,-1.41 -0.59,-2.35l0 -149.23c0,-3.47 0.76,-6 2.35,-7.7 1.53,-1.65 3.7,-2.47 6.41,-2.47l113.54 0c2.7,0 4.88,0.82 6.35,2.47 1.47,1.7 2.23,4.23 2.23,7.7l0 149.23z"/>
   <path id="2" class="fil3" d="M2100.34 916.57c0,4.47 -1.12,7.65 -3.35,9.59 -2.24,1.88 -4.82,2.82 -7.71,2.82l-101.83 0c0,8.64 0.88,16.4 2.59,23.28 1.7,6.94 4.58,12.88 8.64,17.82 4,4.94 9.23,8.7 15.64,11.35 6.47,2.64 14.35,3.99 23.63,3.99 7.35,0 13.94,-0.58 19.64,-1.82 5.77,-1.17 10.76,-2.53 14.94,-4 4.17,-1.47 7.64,-2.82 10.35,-3.99 2.7,-1.24 4.7,-1.83 6.11,-1.83 0.82,0 1.53,0.18 2.18,0.59 0.58,0.41 1.11,1 1.41,1.82 0.35,0.77 0.64,1.88 0.82,3.3 0.18,1.47 0.24,3.17 0.24,5.23 0,1.47 -0.06,2.76 -0.18,3.88 -0.12,1.06 -0.24,2.06 -0.41,2.88 -0.18,0.88 -0.47,1.65 -0.88,2.35 -0.42,0.65 -0.89,1.3 -1.53,1.94 -0.65,0.65 -2.53,1.65 -5.59,3.06 -3.12,1.47 -7.11,2.82 -12.05,4.23 -4.94,1.36 -10.64,2.59 -17.11,3.65 -6.47,1.12 -13.35,1.65 -20.7,1.65 -12.76,0 -23.87,-1.77 -33.45,-5.36 -9.59,-3.52 -17.64,-8.81 -24.17,-15.81 -6.53,-7.06 -11.46,-15.82 -14.76,-26.4 -3.35,-10.53 -4.99,-22.81 -4.99,-36.87 0,-13.29 1.7,-25.28 5.17,-35.92 3.41,-10.59 8.41,-19.64 14.87,-27.05 6.47,-7.41 14.35,-13.05 23.52,-17.05 9.18,-3.94 19.47,-5.94 30.81,-5.94 12.17,0 22.52,1.94 31.05,5.88 8.58,3.88 15.58,9.17 21.11,15.76 5.46,6.58 9.52,14.35 12.11,23.28 2.58,8.88 3.88,18.41 3.88,28.52l0 5.17zm-28.58 -8.4c0.36,-14.94 -2.94,-26.7 -9.93,-35.22 -7,-8.53 -17.29,-12.76 -30.99,-12.76 -7.06,0 -13.23,1.29 -18.52,3.94 -5.29,2.64 -9.7,6.17 -13.29,10.58 -3.59,4.35 -6.35,9.47 -8.29,15.23 -1.94,5.82 -3.06,11.88 -3.29,18.23l84.31 0z"/>
   <path id="3" class="fil3" d="M2286.43 920.81c0,13.58 -1.47,25.75 -4.41,36.57 -2.88,10.76 -7.17,19.93 -12.87,27.46 -5.65,7.52 -12.7,13.34 -21.05,17.4 -8.35,4.06 -17.94,6.12 -28.7,6.12 -4.58,0 -8.82,-0.48 -12.7,-1.36 -3.94,-0.94 -7.7,-2.35 -11.46,-4.35 -3.71,-1.94 -7.41,-4.41 -11.06,-7.41 -3.7,-2.94 -7.58,-6.46 -11.7,-10.46l0 77.67c0,0.94 -0.23,1.7 -0.7,2.41 -0.47,0.7 -1.18,1.29 -2.24,1.76 -1.05,0.41 -2.47,0.77 -4.35,1 -1.82,0.24 -4.17,0.35 -7.05,0.35 -2.82,0 -5.12,-0.11 -6.94,-0.35 -1.88,-0.23 -3.35,-0.59 -4.41,-1 -1.12,-0.47 -1.88,-1.06 -2.29,-1.76 -0.42,-0.71 -0.59,-1.47 -0.59,-2.41l0 -216.67c0,-1.06 0.17,-1.88 0.53,-2.53 0.35,-0.58 1.06,-1.17 2.06,-1.58 1.05,-0.47 2.35,-0.83 3.99,-1 1.59,-0.18 3.59,-0.24 5.88,-0.24 2.41,0 4.41,0.06 6,0.24 1.53,0.17 2.82,0.53 3.88,0.94 1.06,0.47 1.77,1.06 2.18,1.64 0.41,0.65 0.58,1.47 0.58,2.53l0 20.76c4.71,-4.82 9.24,-9 13.59,-12.59 4.35,-3.52 8.76,-6.46 13.17,-8.81 4.41,-2.36 8.93,-4.18 13.58,-5.36 4.64,-1.23 9.52,-1.82 14.7,-1.82 11.23,0 20.75,2.18 28.69,6.53 7.88,4.41 14.35,10.35 19.35,17.93 4.99,7.59 8.64,16.41 10.93,26.46 2.29,10.05 3.41,20.7 3.41,31.93zm-29.63 3.29c0,-7.94 -0.59,-15.64 -1.82,-23.05 -1.18,-7.41 -3.3,-13.99 -6.18,-19.75 -2.94,-5.77 -6.88,-10.35 -11.82,-13.82 -4.94,-3.47 -11.11,-5.18 -18.46,-5.18 -3.7,0 -7.29,0.53 -10.88,1.65 -3.52,1.12 -7.17,2.82 -10.87,5.17 -3.65,2.36 -7.53,5.47 -11.53,9.35 -4,3.88 -8.29,8.65 -12.76,14.29l0 61.68c7.82,9.58 15.23,16.87 22.23,21.99 7.05,5.05 14.4,7.58 22.11,7.58 7.11,0 13.23,-1.7 18.34,-5.17 5.12,-3.47 9.23,-8.06 12.41,-13.82 3.17,-5.76 5.47,-12.17 6.99,-19.34 1.47,-7.12 2.24,-14.35 2.24,-21.58z"/>
   <path id="4" class="fil3" d="M2446.01 1001.06c0,1.36 -0.47,2.41 -1.35,3.12 -0.94,0.71 -2.18,1.18 -3.83,1.53 -1.58,0.35 -3.93,0.53 -7.05,0.53 -2.94,0 -5.35,-0.18 -7.12,-0.53 -1.76,-0.35 -3.05,-0.82 -3.88,-1.53 -0.82,-0.71 -1.23,-1.7 -1.23,-3.12l0 -15.52c-6.76,7.23 -14.29,12.88 -22.64,16.88 -8.35,3.94 -17.17,5.94 -26.46,5.94 -8.17,0 -15.58,-1.06 -22.16,-3.18 -6.59,-2.12 -12.23,-5.23 -16.88,-9.23 -4.64,-4 -8.29,-9 -10.87,-14.82 -2.59,-5.88 -3.88,-12.52 -3.88,-19.99 0,-8.76 1.76,-16.34 5.35,-22.75 3.52,-6.47 8.64,-11.82 15.34,-16.05 6.65,-4.24 14.82,-7.47 24.46,-9.59 9.64,-2.12 20.52,-3.17 32.57,-3.17l21.41 0 0 -12.12c0,-5.93 -0.65,-11.23 -1.89,-15.87 -1.29,-4.59 -3.29,-8.41 -6.11,-11.47 -2.82,-3.05 -6.47,-5.35 -10.94,-6.88 -4.46,-1.58 -9.99,-2.35 -16.52,-2.35 -6.99,0 -13.29,0.83 -18.81,2.53 -5.59,1.71 -10.47,3.53 -14.64,5.59 -4.18,2.05 -7.71,3.88 -10.53,5.58 -2.76,1.71 -4.88,2.53 -6.23,2.53 -0.94,0 -1.76,-0.23 -2.41,-0.7 -0.71,-0.42 -1.29,-1.12 -1.82,-2.06 -0.53,-0.88 -0.89,-2.06 -1.12,-3.47 -0.24,-1.47 -0.35,-3 -0.35,-4.76 0,-2.83 0.17,-5.12 0.58,-6.77 0.42,-1.64 1.42,-3.23 2.94,-4.7 1.53,-1.47 4.24,-3.23 8,-5.29 3.76,-2 8.17,-3.88 13.11,-5.59 4.88,-1.64 10.29,-3.05 16.17,-4.17 5.82,-1.12 11.76,-1.65 17.7,-1.65 11.11,0 20.58,1.24 28.4,3.77 7.82,2.52 14.11,6.29 18.93,11.17 4.82,4.88 8.29,10.93 10.47,18.16 2.17,7.24 3.29,15.7 3.29,25.35l0 104.65zm-28.22 -71.02l-24.29 0c-7.76,0 -14.52,0.64 -20.28,2 -5.7,1.29 -10.47,3.29 -14.29,5.88 -3.76,2.58 -6.53,5.64 -8.35,9.29 -1.76,3.64 -2.64,7.82 -2.64,12.52 0,8.06 2.52,14.46 7.64,19.23 5.11,4.76 12.23,7.17 21.46,7.17 7.41,0 14.35,-1.88 20.7,-5.7 6.35,-3.77 13.05,-9.59 20.05,-17.41l0 -32.98z"/>
   <path id="5" class="fil3" d="M2605.46 854.37c0,2.29 -0.12,4.23 -0.35,5.82 -0.24,1.64 -0.59,2.94 -1.12,3.94 -0.53,1.06 -1.12,1.82 -1.76,2.35 -0.71,0.53 -1.59,0.76 -2.59,0.76l-46.39 0 0 133.65c0,0.94 -0.23,1.7 -0.71,2.35 -0.47,0.59 -1.17,1.18 -2.23,1.65 -1.06,0.41 -2.47,0.76 -4.35,1 -1.82,0.23 -4.17,0.35 -7.06,0.35 -2.82,0 -5.11,-0.12 -6.93,-0.35 -1.89,-0.24 -3.36,-0.59 -4.41,-1 -1.12,-0.47 -1.89,-1.06 -2.3,-1.65 -0.41,-0.65 -0.58,-1.41 -0.58,-2.35l0 -133.65 -46.4 0c-0.88,0 -1.7,-0.23 -2.46,-0.76 -0.77,-0.53 -1.36,-1.29 -1.83,-2.35 -0.41,-1 -0.82,-2.36 -1.11,-4 -0.3,-1.65 -0.42,-3.65 -0.42,-5.94 0,-2.06 0.12,-3.88 0.42,-5.47 0.29,-1.64 0.7,-3 1.23,-4.05 0.53,-1.12 1.12,-1.89 1.82,-2.42 0.65,-0.52 1.47,-0.76 2.35,-0.76l121.36 0c0.88,0 1.71,0.24 2.47,0.76 0.76,0.53 1.35,1.3 1.82,2.42 0.41,1.05 0.83,2.46 1.12,4.11 0.29,1.65 0.41,3.53 0.41,5.59z"/>
   <path id="6" class="fil3" d="M2773.73 921.51c0,12.64 -1.64,24.29 -4.99,34.93 -3.3,10.58 -8.3,19.75 -14.88,27.46 -6.59,7.7 -14.88,13.7 -24.75,17.99 -9.94,4.29 -21.46,6.47 -34.52,6.47 -12.76,0 -23.87,-1.89 -33.34,-5.71 -9.46,-3.76 -17.34,-9.29 -23.63,-16.52 -6.29,-7.23 -11,-16.05 -14.11,-26.34 -3.12,-10.35 -4.65,-22.05 -4.65,-35.16 0,-12.64 1.65,-24.28 4.88,-34.87 3.3,-10.64 8.23,-19.81 14.82,-27.51 6.58,-7.71 14.82,-13.65 24.69,-17.94 9.88,-4.23 21.41,-6.35 34.58,-6.35 12.76,0 23.87,1.88 33.33,5.71 9.47,3.76 17.35,9.29 23.64,16.52 6.29,7.23 11.05,15.99 14.23,26.34 3.12,10.35 4.7,21.99 4.7,34.98zm-29.63 1.83c0,-8.41 -0.77,-16.35 -2.35,-23.82 -1.53,-7.46 -4.12,-13.99 -7.71,-19.64 -3.52,-5.64 -8.4,-10.11 -14.52,-13.34 -6.05,-3.3 -13.7,-4.94 -22.81,-4.94 -8.41,0 -15.64,1.47 -21.7,4.47 -6.05,3 -10.99,7.23 -14.93,12.7 -3.94,5.47 -6.82,11.93 -8.7,19.4 -1.94,7.47 -2.88,15.64 -2.88,24.46 0,8.52 0.76,16.52 2.35,23.99 1.53,7.47 4.11,13.99 7.76,19.58 3.64,5.52 8.52,9.99 14.58,13.23 6.12,3.29 13.76,4.94 22.87,4.94 8.29,0 15.47,-1.47 21.58,-4.47 6.12,-3 11.11,-7.18 15.05,-12.59 3.94,-5.4 6.82,-11.87 8.65,-19.34 1.82,-7.47 2.76,-15.7 2.76,-24.63z"/>
   <path id="7" class="fil3" d="M2958.35 920.81c0,13.58 -1.47,25.75 -4.41,36.57 -2.88,10.76 -7.17,19.93 -12.87,27.46 -5.65,7.52 -12.7,13.34 -21.05,17.4 -8.35,4.06 -17.94,6.12 -28.7,6.12 -4.58,0 -8.82,-0.48 -12.7,-1.36 -3.94,-0.94 -7.7,-2.35 -11.46,-4.35 -3.71,-1.94 -7.41,-4.41 -11.06,-7.41 -3.7,-2.94 -7.58,-6.46 -11.7,-10.46l0 77.67c0,0.94 -0.23,1.7 -0.7,2.41 -0.47,0.7 -1.18,1.29 -2.24,1.76 -1.05,0.41 -2.47,0.77 -4.35,1 -1.82,0.24 -4.17,0.35 -7.05,0.35 -2.82,0 -5.12,-0.11 -6.94,-0.35 -1.88,-0.23 -3.35,-0.59 -4.41,-1 -1.12,-0.47 -1.88,-1.06 -2.29,-1.76 -0.42,-0.71 -0.59,-1.47 -0.59,-2.41l0 -216.67c0,-1.06 0.17,-1.88 0.53,-2.53 0.35,-0.58 1.06,-1.17 2.06,-1.58 1.05,-0.47 2.35,-0.83 3.99,-1 1.59,-0.18 3.59,-0.24 5.88,-0.24 2.41,0 4.41,0.06 6,0.24 1.53,0.17 2.82,0.53 3.88,0.94 1.06,0.47 1.77,1.06 2.18,1.64 0.41,0.65 0.58,1.47 0.58,2.53l0 20.76c4.71,-4.82 9.24,-9 13.59,-12.59 4.35,-3.52 8.76,-6.46 13.17,-8.81 4.41,-2.36 8.93,-4.18 13.58,-5.36 4.64,-1.23 9.52,-1.82 14.7,-1.82 11.23,0 20.75,2.18 28.69,6.53 7.88,4.41 14.35,10.35 19.35,17.93 4.99,7.59 8.64,16.41 10.93,26.46 2.29,10.05 3.41,20.7 3.41,31.93zm-29.63 3.29c0,-7.94 -0.59,-15.64 -1.82,-23.05 -1.18,-7.41 -3.3,-13.99 -6.18,-19.75 -2.94,-5.77 -6.88,-10.35 -11.82,-13.82 -4.94,-3.47 -11.11,-5.18 -18.46,-5.18 -3.7,0 -7.29,0.53 -10.88,1.65 -3.52,1.12 -7.17,2.82 -10.87,5.17 -3.65,2.36 -7.53,5.47 -11.53,9.35 -4,3.88 -8.29,8.65 -12.76,14.29l0 61.68c7.82,9.58 15.23,16.87 22.23,21.99 7.05,5.05 14.4,7.58 22.11,7.58 7.11,0 13.23,-1.7 18.34,-5.17 5.12,-3.47 9.23,-8.06 12.41,-13.82 3.17,-5.76 5.47,-12.17 6.99,-19.34 1.47,-7.12 2.24,-14.35 2.24,-21.58z"/>
   <path class="fil3" d="M1687.07 3044.1c0,18.06 -2.11,34.28 -6.35,48.75 -4.29,14.46 -10.64,26.75 -19.05,36.92 -8.46,10.11 -19.05,17.93 -31.81,23.4 -12.75,5.47 -27.63,8.18 -44.62,8.18 -16.76,0 -31.22,-2.47 -43.45,-7.47 -12.29,-5 -22.35,-12.29 -30.34,-21.82 -8,-9.52 -13.94,-21.34 -17.82,-35.45 -3.94,-14.11 -5.88,-30.34 -5.88,-48.68 0,-17.58 2.12,-33.58 6.35,-47.92 4.3,-14.35 10.65,-26.52 19.17,-36.57 8.47,-10 19.11,-17.76 31.87,-23.23 12.7,-5.47 27.57,-8.17 44.63,-8.17 16.4,0 30.69,2.47 42.86,7.41 12.17,4.94 22.34,12.11 30.4,21.57 8.11,9.47 14.17,21.17 18.11,35.17 3.94,13.93 5.93,29.92 5.93,47.91zm-31.39 2.06c0,-12.58 -1.12,-24.34 -3.35,-35.16 -2.24,-10.82 -5.94,-20.22 -11.18,-28.22 -5.23,-7.94 -12.17,-14.17 -20.87,-18.64 -8.76,-4.47 -19.52,-6.7 -32.34,-6.7 -12.87,0 -23.63,2.41 -32.34,7.23 -8.7,4.82 -15.81,11.23 -21.22,19.23 -5.47,8.05 -9.35,17.4 -11.7,28.16 -2.35,10.7 -3.53,21.93 -3.53,33.75 0,13.11 1.12,25.11 3.29,36.1 2.18,11.05 5.82,20.52 11,28.52 5.11,7.93 12.05,14.11 20.69,18.52 8.65,4.41 19.53,6.64 32.58,6.64 12.99,0 23.87,-2.41 32.69,-7.23 8.82,-4.82 15.93,-11.29 21.34,-19.52 5.35,-8.17 9.23,-17.7 11.53,-28.46 2.29,-10.76 3.41,-22.16 3.41,-34.22z"/>
   <path id="1" class="fil3" d="M1861.76 3153.88c0,0.94 -0.24,1.7 -0.71,2.35 -0.47,0.59 -1.17,1.18 -2.23,1.65 -1,0.41 -2.47,0.76 -4.29,1 -1.82,0.23 -4.12,0.35 -6.88,0.35 -2.88,0 -5.23,-0.12 -7.06,-0.35 -1.82,-0.24 -3.29,-0.59 -4.41,-1 -1.06,-0.47 -1.82,-1.06 -2.29,-1.65 -0.47,-0.65 -0.71,-1.41 -0.71,-2.35l0 -135.41 -73.73 0 0 135.41c0,0.94 -0.23,1.7 -0.7,2.35 -0.47,0.59 -1.24,1.18 -2.35,1.65 -1.06,0.41 -2.53,0.76 -4.41,1 -1.83,0.23 -4.12,0.35 -6.88,0.35 -2.82,0 -5.12,-0.12 -6.94,-0.35 -1.88,-0.24 -3.35,-0.59 -4.41,-1 -1.12,-0.47 -1.88,-1.06 -2.29,-1.65 -0.42,-0.65 -0.59,-1.41 -0.59,-2.35l0 -149.23c0,-3.47 0.76,-6 2.35,-7.7 1.53,-1.65 3.7,-2.47 6.41,-2.47l113.54 0c2.7,0 4.88,0.82 6.35,2.47 1.47,1.7 2.23,4.23 2.23,7.7l0 149.23z"/>
   <path id="2" class="fil3" d="M2046.44 3069.56c0,4.47 -1.12,7.65 -3.35,9.59 -2.24,1.88 -4.82,2.82 -7.71,2.82l-101.83 0c0,8.64 0.88,16.4 2.59,23.28 1.7,6.94 4.58,12.88 8.64,17.82 4,4.94 9.23,8.7 15.64,11.35 6.47,2.64 14.35,3.99 23.63,3.99 7.35,0 13.94,-0.58 19.64,-1.82 5.77,-1.17 10.76,-2.53 14.94,-4 4.17,-1.47 7.64,-2.82 10.35,-3.99 2.7,-1.24 4.7,-1.83 6.11,-1.83 0.82,0 1.53,0.18 2.18,0.59 0.58,0.41 1.11,1 1.41,1.82 0.35,0.77 0.64,1.88 0.82,3.3 0.18,1.47 0.24,3.17 0.24,5.23 0,1.47 -0.06,2.76 -0.18,3.88 -0.12,1.06 -0.24,2.06 -0.41,2.88 -0.18,0.88 -0.47,1.65 -0.88,2.35 -0.42,0.65 -0.89,1.3 -1.53,1.94 -0.65,0.65 -2.53,1.65 -5.59,3.06 -3.12,1.47 -7.11,2.82 -12.05,4.23 -4.94,1.36 -10.64,2.59 -17.11,3.65 -6.47,1.12 -13.35,1.65 -20.7,1.65 -12.76,0 -23.87,-1.77 -33.45,-5.36 -9.59,-3.52 -17.64,-8.81 -24.17,-15.81 -6.53,-7.06 -11.46,-15.82 -14.76,-26.4 -3.35,-10.53 -4.99,-22.81 -4.99,-36.87 0,-13.29 1.7,-25.28 5.17,-35.92 3.41,-10.59 8.41,-19.64 14.87,-27.05 6.47,-7.41 14.35,-13.05 23.52,-17.05 9.18,-3.94 19.47,-5.94 30.81,-5.94 12.17,0 22.52,1.94 31.05,5.88 8.58,3.88 15.58,9.17 21.11,15.76 5.46,6.58 9.52,14.35 12.11,23.28 2.58,8.88 3.88,18.41 3.88,28.52l0 5.17zm-28.58 -8.4c0.36,-14.94 -2.94,-26.7 -9.93,-35.22 -7,-8.53 -17.29,-12.76 -30.99,-12.76 -7.06,0 -13.23,1.29 -18.52,3.94 -5.29,2.64 -9.7,6.17 -13.29,10.58 -3.59,4.35 -6.35,9.47 -8.29,15.23 -1.94,5.82 -3.06,11.88 -3.29,18.23l84.31 0z"/>
   <path id="3" class="fil3" d="M2232.53 3073.8c0,13.58 -1.47,25.75 -4.41,36.57 -2.88,10.76 -7.17,19.93 -12.87,27.46 -5.65,7.52 -12.7,13.34 -21.05,17.4 -8.35,4.06 -17.94,6.12 -28.7,6.12 -4.58,0 -8.82,-0.48 -12.7,-1.36 -3.94,-0.94 -7.7,-2.35 -11.46,-4.35 -3.71,-1.94 -7.41,-4.41 -11.06,-7.41 -3.7,-2.94 -7.58,-6.46 -11.7,-10.46l0 77.67c0,0.94 -0.23,1.7 -0.7,2.41 -0.47,0.7 -1.18,1.29 -2.24,1.76 -1.05,0.41 -2.47,0.77 -4.35,1 -1.82,0.24 -4.17,0.35 -7.05,0.35 -2.82,0 -5.12,-0.11 -6.94,-0.35 -1.88,-0.23 -3.35,-0.59 -4.41,-1 -1.12,-0.47 -1.88,-1.06 -2.29,-1.76 -0.42,-0.71 -0.59,-1.47 -0.59,-2.41l0 -216.67c0,-1.06 0.17,-1.88 0.53,-2.53 0.35,-0.58 1.06,-1.17 2.06,-1.58 1.05,-0.47 2.35,-0.83 3.99,-1 1.59,-0.18 3.59,-0.24 5.88,-0.24 2.41,0 4.41,0.06 6,0.24 1.53,0.17 2.82,0.53 3.88,0.94 1.06,0.47 1.77,1.06 2.18,1.64 0.41,0.65 0.58,1.47 0.58,2.53l0 20.76c4.71,-4.82 9.24,-9 13.59,-12.59 4.35,-3.52 8.76,-6.46 13.17,-8.81 4.41,-2.36 8.93,-4.18 13.58,-5.36 4.64,-1.23 9.52,-1.82 14.7,-1.82 11.23,0 20.75,2.18 28.69,6.53 7.88,4.41 14.35,10.35 19.35,17.93 4.99,7.59 8.64,16.41 10.93,26.46 2.29,10.05 3.41,20.7 3.41,31.93zm-29.63 3.29c0,-7.94 -0.59,-15.64 -1.82,-23.05 -1.18,-7.41 -3.3,-13.99 -6.18,-19.75 -2.94,-5.77 -6.88,-10.35 -11.82,-13.82 -4.94,-3.47 -11.11,-5.18 -18.46,-5.18 -3.7,0 -7.29,0.53 -10.88,1.65 -3.52,1.12 -7.17,2.82 -10.87,5.17 -3.65,2.36 -7.53,5.47 -11.53,9.35 -4,3.88 -8.29,8.65 -12.76,14.29l0 61.68c7.82,9.58 15.23,16.87 22.23,21.99 7.05,5.05 14.4,7.58 22.11,7.58 7.11,0 13.23,-1.7 18.34,-5.17 5.12,-3.47 9.23,-8.06 12.41,-13.82 3.17,-5.76 5.47,-12.17 6.99,-19.34 1.47,-7.12 2.24,-14.35 2.24,-21.58z"/>
   <path id="4" class="fil3" d="M2392.11 3154.05c0,1.36 -0.47,2.41 -1.35,3.12 -0.94,0.71 -2.18,1.18 -3.83,1.53 -1.58,0.35 -3.93,0.53 -7.05,0.53 -2.94,0 -5.35,-0.18 -7.12,-0.53 -1.76,-0.35 -3.05,-0.82 -3.88,-1.53 -0.82,-0.71 -1.23,-1.7 -1.23,-3.12l0 -15.52c-6.76,7.23 -14.29,12.88 -22.64,16.88 -8.35,3.94 -17.17,5.94 -26.46,5.94 -8.17,0 -15.58,-1.06 -22.16,-3.18 -6.59,-2.12 -12.23,-5.23 -16.88,-9.23 -4.64,-4 -8.29,-9 -10.87,-14.82 -2.59,-5.88 -3.88,-12.52 -3.88,-19.99 0,-8.76 1.76,-16.34 5.35,-22.75 3.52,-6.47 8.64,-11.82 15.34,-16.05 6.65,-4.24 14.82,-7.47 24.46,-9.59 9.64,-2.12 20.52,-3.17 32.57,-3.17l21.41 0 0 -12.12c0,-5.93 -0.65,-11.23 -1.89,-15.87 -1.29,-4.59 -3.29,-8.41 -6.11,-11.47 -2.82,-3.05 -6.47,-5.35 -10.94,-6.88 -4.46,-1.58 -9.99,-2.35 -16.52,-2.35 -6.99,0 -13.29,0.83 -18.81,2.53 -5.59,1.71 -10.47,3.53 -14.64,5.59 -4.18,2.05 -7.71,3.88 -10.53,5.58 -2.76,1.71 -4.88,2.53 -6.23,2.53 -0.94,0 -1.76,-0.23 -2.41,-0.7 -0.71,-0.42 -1.29,-1.12 -1.82,-2.06 -0.53,-0.88 -0.89,-2.06 -1.12,-3.47 -0.24,-1.47 -0.35,-3 -0.35,-4.76 0,-2.83 0.17,-5.12 0.58,-6.77 0.42,-1.64 1.42,-3.23 2.94,-4.7 1.53,-1.47 4.24,-3.23 8,-5.29 3.76,-2 8.17,-3.88 13.11,-5.59 4.88,-1.64 10.29,-3.05 16.17,-4.17 5.82,-1.12 11.76,-1.65 17.7,-1.65 11.11,0 20.58,1.24 28.4,3.77 7.82,2.52 14.11,6.29 18.93,11.17 4.82,4.88 8.29,10.93 10.47,18.16 2.17,7.24 3.29,15.7 3.29,25.35l0 104.65zm-28.22 -71.02l-24.29 0c-7.76,0 -14.52,0.64 -20.28,2 -5.7,1.29 -10.47,3.29 -14.29,5.88 -3.76,2.58 -6.53,5.64 -8.35,9.29 -1.76,3.64 -2.64,7.82 -2.64,12.52 0,8.06 2.52,14.46 7.64,19.23 5.11,4.76 12.23,7.17 21.46,7.17 7.41,0 14.35,-1.88 20.7,-5.7 6.35,-3.77 13.05,-9.59 20.05,-17.41l0 -32.98z"/>
   <path id="5" class="fil3" d="M2580.14 3153.88c0,0.94 -0.24,1.7 -0.71,2.35 -0.47,0.59 -1.17,1.18 -2.23,1.65 -1.06,0.41 -2.47,0.76 -4.35,1 -1.82,0.23 -4.12,0.35 -6.88,0.35 -2.94,0 -5.29,-0.12 -7.12,-0.35 -1.88,-0.24 -3.29,-0.59 -4.35,-1 -1.05,-0.47 -1.76,-1.06 -2.23,-1.65 -0.47,-0.65 -0.71,-1.41 -0.71,-2.35l0 -68.03 -78.67 0 0 68.03c0,0.94 -0.23,1.7 -0.7,2.35 -0.47,0.59 -1.18,1.18 -2.24,1.65 -1.05,0.41 -2.47,0.76 -4.35,1 -1.82,0.23 -4.17,0.35 -7.05,0.35 -2.82,0 -5.12,-0.12 -6.94,-0.35 -1.88,-0.24 -3.35,-0.59 -4.41,-1 -1.12,-0.47 -1.88,-1.06 -2.29,-1.65 -0.42,-0.65 -0.59,-1.41 -0.59,-2.35l0 -155.11c0,-0.94 0.17,-1.7 0.59,-2.35 0.41,-0.59 1.17,-1.18 2.29,-1.7 1.06,-0.53 2.53,-0.89 4.41,-1.06 1.82,-0.18 4.12,-0.24 6.94,-0.24 2.88,0 5.23,0.06 7.05,0.24 1.88,0.17 3.3,0.53 4.35,1.06 1.06,0.52 1.77,1.11 2.24,1.7 0.47,0.65 0.7,1.41 0.7,2.35l0 63.09 78.67 0 0 -63.09c0,-0.94 0.24,-1.7 0.71,-2.35 0.47,-0.59 1.18,-1.18 2.23,-1.7 1.06,-0.53 2.47,-0.89 4.35,-1.06 1.83,-0.18 4.18,-0.24 7.12,-0.24 2.76,0 5.06,0.06 6.88,0.24 1.88,0.17 3.29,0.53 4.35,1.06 1.06,0.52 1.76,1.11 2.23,1.7 0.47,0.65 0.71,1.41 0.71,2.35l0 155.11z"/>
   <path id="6" class="fil3" d="M2634.35 3210.15c0,0.82 -0.18,1.47 -0.53,2 -0.35,0.47 -1,0.94 -1.94,1.29 -1,0.29 -2.23,0.59 -3.7,0.82 -1.47,0.24 -3.3,0.35 -5.47,0.35 -2.41,0 -4.41,-0.11 -5.94,-0.35 -1.53,-0.23 -2.76,-0.53 -3.76,-0.82 -0.94,-0.35 -1.65,-0.82 -2.06,-1.29 -0.41,-0.53 -0.59,-1.18 -0.59,-2l0 -68.91c0,-2.88 0.47,-4.77 1.41,-5.71 0.88,-0.88 2.71,-1.35 5.35,-1.35l11.06 0c4.29,-5.17 8.29,-11.05 11.93,-17.76 3.71,-6.64 7.17,-14.99 10.35,-25.04 3.17,-10.06 6.06,-22.17 8.7,-36.28 2.65,-14.11 5.12,-30.99 7.29,-50.62 0.24,-1.59 0.53,-3.06 0.94,-4.41 0.41,-1.3 1,-2.36 1.71,-3.12 0.76,-0.71 1.64,-1.29 2.7,-1.76 1,-0.47 2.24,-0.71 3.59,-0.71l86.02 0c2.76,0 4.88,0.82 6.41,2.47 1.59,1.7 2.35,4.23 2.35,7.7l0 129.53 21.52 0c2.41,0 4.12,0.47 5.17,1.35 1,0.94 1.53,2.83 1.53,5.71l0 68.91c0,0.82 -0.17,1.47 -0.53,2 -0.35,0.47 -1,0.94 -1.94,1.29 -1,0.29 -2.29,0.59 -3.88,0.82 -1.59,0.24 -3.47,0.35 -5.64,0.35 -2.3,0 -4.18,-0.11 -5.65,-0.35 -1.47,-0.23 -2.7,-0.53 -3.7,-0.82 -0.94,-0.35 -1.65,-0.82 -2.06,-1.29 -0.41,-0.53 -0.59,-1.18 -0.59,-2l0 -51.98 -140.05 0 0 51.98zm107.24 -192.39l-49.03 0c-2.41,18.76 -4.88,34.58 -7.47,47.45 -2.59,12.88 -5.35,23.7 -8.29,32.58 -2.94,8.87 -6,16.05 -9.23,21.63 -3.18,5.59 -6.53,10.53 -10,14.76l84.02 0 0 -116.42z"/>
   <path id="7" class="fil3" d="M3012.24 3153.88c0,0.94 -0.24,1.7 -0.71,2.35 -0.47,0.59 -1.18,1.18 -2.23,1.65 -1.06,0.41 -2.47,0.76 -4.36,1 -1.82,0.23 -4.17,0.35 -7.05,0.35 -2.82,0 -5.12,-0.12 -6.94,-0.35 -1.88,-0.24 -3.35,-0.59 -4.41,-1 -1.12,-0.47 -1.88,-1.06 -2.29,-1.65 -0.41,-0.65 -0.59,-1.41 -0.59,-2.35l0 -155.11c0,-0.94 0.18,-1.7 0.59,-2.35 0.41,-0.59 1.17,-1.18 2.29,-1.7 1.06,-0.53 2.53,-0.89 4.41,-1.06 1.82,-0.18 4.12,-0.24 6.94,-0.24 2.88,0 5.23,0.06 7.05,0.24 1.89,0.17 3.3,0.53 4.36,1.06 1.05,0.52 1.76,1.11 2.23,1.7 0.47,0.65 0.71,1.41 0.71,2.35l0 155.11zm-153.82 -100.49c4.24,-0.35 8.53,-0.64 12.82,-0.82 4.29,-0.18 8.94,-0.23 13.99,-0.23 12.29,0 22.76,1.23 31.52,3.7 8.7,2.47 15.88,6 21.58,10.58 5.64,4.59 9.82,10.06 12.46,16.47 2.65,6.35 3.94,13.52 3.94,21.4 0,7.94 -1.41,15.34 -4.23,22.22 -2.82,6.88 -7.23,12.88 -13.23,17.94 -6.06,5.05 -13.76,9.05 -23.17,11.93 -9.46,2.94 -20.75,4.41 -33.98,4.41 -3.06,0 -6.17,0 -9.29,-0.06 -3.06,-0.06 -6.12,-0.17 -9.11,-0.35 -3,-0.18 -5.94,-0.41 -8.88,-0.65 -2.94,-0.17 -5.88,-0.47 -8.88,-0.82 -4.82,-0.59 -8.35,-2.12 -10.64,-4.64 -2.3,-2.53 -3.47,-6.41 -3.47,-11.59l0 -144.11c0,-0.94 0.17,-1.7 0.59,-2.35 0.41,-0.59 1.17,-1.18 2.29,-1.7 1.06,-0.53 2.53,-0.89 4.29,-1.06 1.82,-0.18 4,-0.24 6.7,-0.24 5.53,0 9.35,0.41 11.53,1.3 2.12,0.88 3.17,2.23 3.17,4.05l0 54.62zm66.68 53.04c0,-4.76 -0.71,-9.06 -2.18,-12.94 -1.41,-3.82 -3.76,-7.11 -6.99,-9.82 -3.3,-2.7 -7.59,-4.82 -13,-6.23 -5.41,-1.47 -11.99,-2.17 -19.75,-2.17 -4.71,0 -9.06,0.11 -13.06,0.35 -3.99,0.23 -7.93,0.53 -11.7,0.88l0 59.86c4,0.41 7.94,0.82 11.88,1.17 3.88,0.36 8.64,0.53 14.23,0.53 13.99,0 24.22,-2.82 30.75,-8.41 6.53,-5.58 9.82,-13.34 9.82,-23.22z"/>
   <g>
    <path class="fil3" d="M1629.24 2362.4l585.85 451.79 -12.22 15.84 -585.85 -451.79 12.22 -15.84zm-26.51 -26.65l-2.89 35.44 18.22 -23.63 55.56 157.72 -33.54 11.82 -55.56 -157.72 18.21 -23.63zm0 0l-18.21 23.63 -9.11 -25.86 27.32 2.23zm165.27 31.32l-1.45 17.72 -166.71 -13.6 2.89 -35.44 166.71 13.6 -1.44 17.72z"/>
   </g>
   <g>
    <path class="fil3" d="M2942.85 2378.24l-585.85 451.79 -12.22 -15.84 585.85 -451.79 12.22 15.84zm32.51 -18.87l-33.55 -11.8 18.23 23.62 -166.67 13.66 -2.9 -35.44 166.66 -13.66 18.23 23.62zm0 0l-18.23 -23.62 27.33 -2.24 -9.1 25.86zm-72.3 151.88l-16.77 -5.91 55.52 -157.77 33.55 11.8 -55.53 157.78 -16.77 -5.9z"/>
   </g>
   <g>
    <path class="fil3" d="M2094.69 1590.72l143.18 -424.81 18.96 6.38 -143.18 424.81 -18.96 -6.38zm-16.56 33.74l34.45 -8.81 -28.27 -9.53 131.01 -103.91 22.1 27.86 -131.01 103.91 -28.28 -9.52zm0 0l28.28 9.52 -21.49 17.04 -6.79 -26.56zm-24.22 -166.45l17.22 -4.41 41.45 162.05 -34.45 8.81 -41.45 -162.05 17.23 -4.4z"/>
   </g>
  </g>
 </g>
</svg>
